<?xml version="1.0" encoding="utf-8"?>
<!-- Generator: Adobe Illustrator 19.0.0, SVG Export Plug-In . SVG Version: 6.00 Build 0)  -->
<svg version="1.1" xmlns="http://www.w3.org/2000/svg" xmlns:xlink="http://www.w3.org/1999/xlink" x="0em" y="0em"
	 viewBox="0 0 1000 1000" style="enable-background:new 0 0 1000 1000;" xml:space="preserve">
<style type="text/css">
	.st0{fill:#FFFFFF;}
</style>
<g id="Livello_2">
</g>
<g id="Livello_1">
	<circle id="XMLID_3_" class="st0" cx="500" cy="363.2" r="26"/>
	<path id="XMLID_10_" class="st0" d="M513.1,497c-0.9-11.7-1.5-39.4,14.6-68c23.6-42.1,65.3-54.2,75.6-57.1
		c10.6-2.9,65.1-17.9,104.7,16.9c31,27.2,32.3,66.9,32.7,78.6c1.8,55.7-35.7,91.2-39.9,95c-37.6,34.4-82.7,32.5-91,32.1
		C577.5,562,545.3,529.5,513.1,497z"/>
	<g id="XMLID_11_">
		<path id="XMLID_14_" class="st0" d="M532.1,594.9c13.6-12.8,25.8-23.5,35.7-32c-7.8-7.9-15.6-15.9-23.4-23.8
			c-10.8,12.7-27.6,29.5-40.4,42.9l19.8,19.8C525,600.6,531.1,595.9,532.1,594.9z"/>
		<path id="XMLID_15_" class="st0" d="M445.2,638.8c-3.8,6.4-3,14.6,1.8,20c4.5,5.1,11.8,6.9,18.3,4.7c7.3-8.2,21.2-24.6,29.2-33
			l-20.2-20.2C466.7,617.5,452.6,632.4,445.2,638.8z"/>
	</g>
	<path id="XMLID_2_" class="st0" d="M391,593.3c-11.7,0.9-39.4,1.4-68-14.7c-42-23.7-54.2-65.3-57-75.7
		c-2.9-10.6-17.8-65.1,17-104.7c27.3-31,67-32.3,78.7-32.7c55.7-1.8,91.1,35.8,95,40c34.3,37.6,32.5,82.8,32,91
		C456.1,528.9,423.6,561.1,391,593.3z"/>
	<path id="XMLID_4_" class="st0" d="M572.6,567.8c6.4,6.4,12.8,12.8,19.3,19.2c0.6,0.6-0.4,1.7-1.1,2.4c-3.2,3.1-10-3.8-20.4-4.1
		c-9.3-0.3-15.8,5-18.5,1.8c-0.6-0.8-1.5-1.9-0.8-2.5c6.5-5.6,13.1-11.3,19.6-16.9C571.2,567.3,572.1,567.3,572.6,567.8z"/>
	<path id="XMLID_9_" class="st0" d="M538,534.2c-5.9,6.9-11.9,13.7-17.8,20.6c-0.6,0.7-1.7-0.2-2.5-0.9c-3.4-3,3.1-10.2,2.6-20.6
		c-0.4-9.3-6.1-15.4-3.1-18.3c0.7-0.7,1.8-1.6,2.4-1c6.1,6.1,12.2,12.3,18.3,18.4C538.4,532.8,538.5,533.6,538,534.2z"/>
	<path id="XMLID_8_" class="st0" d="M462.9,534.2c5.9,6.9,11.9,13.7,17.8,20.6c0.6,0.7,1.7-0.2,2.5-0.9c3.4-3-3.1-10.2-2.6-20.6
		c0.4-9.3,6.1-15.4,3.1-18.3c-0.7-0.7-1.8-1.6-2.4-1c-6.1,6.1-12.2,12.3-18.3,18.4C462.4,532.8,462.4,533.6,462.9,534.2z"/>
	<path id="XMLID_5_" class="st0" d="M427.6,568.6c7,5.8,14,11.5,21,17.3c0.7,0.6-0.2,1.7-0.8,2.5c-2.9,3.4-10.3-2.8-20.7-2.1
		c-9.3,0.6-15.3,6.4-18.2,3.5c-0.7-0.7-1.6-1.8-1.1-2.4c6-6.2,12-12.5,18-18.7C426.2,568.2,427,568.1,427.6,568.6z"/>
	<path id="XMLID_6_" class="st0" d="M433.2,562c15.9,13.6,32.5,28.7,49.3,45.3c18.7,18.5,35.4,36.6,50.3,54c6.4,3.8,14.6,3,20-1.8
		c5.1-4.5,6.9-11.8,4.7-18.3c-15.6-13.9-31.6-28.9-47.8-45.3c-19.3-19.5-36.9-38.7-52.7-57.2C449.1,546.4,441.1,554.2,433.2,562z"/>
</g>
</svg>
