<?xml version="1.0" encoding="utf-8"?>
<!-- Generator: Adobe Illustrator 19.0.0, SVG Export Plug-In . SVG Version: 6.00 Build 0)  -->
<svg version="1.1" id="Livello_1" xmlns="http://www.w3.org/2000/svg" xmlns:xlink="http://www.w3.org/1999/xlink" x="0px" y="0px"
	 viewBox="0 0 500 500" style="enable-background:new 0 0 500 500;" xml:space="preserve">
<style type="text/css">
	.st0{fill:#FFFFFF;}
</style>
<g id="XMLID_1_">
	<path id="XMLID_2_" class="st0" d="M330,78.2c10.6-24.8,21.1-49.8,31.6-74.7c-80.5,161.2-154.3,325.4-224,491.5
		c0.2,0.1,0.5,0.2,0.7,0.3c34.1-71.7,68.3-143.4,102.3-214.8c2.9,2.5,5.8,5.4,9.1,7.8c3.4,2.4,7.2,4.2,10.7,6.4
		c5.6,3.5,11.2,6.9,16.5,10.8c3.9,2.8,5.9,6.8,5.5,11.9c-0.3,3.6,0,7.3-0.1,11c0,4.8-2,7.4-6.6,8.3c-1.8,0.3-3.7,0.5-5.5,0.4
		c-7.5-0.5-9.6-2.9-9.6-10.4c0-1.3,0-2.5,0-3.8c0-3.5,0-7,0-10.6c-8.6,0-16.8,0-25.3,0c0,6.5-0.3,12.6,0.1,18.8
		c0.6,11.1,6.8,18,17.2,21.1c4,1.2,8.3,1.9,12.5,2.3c9,0.8,18,0.4,26.7-2.7c9.1-3.3,14.8-9.5,15.6-19.4c0.5-6.1,0.3-12.3,0.3-18.5
		c0.1-6.1-2-11.4-5.8-16.1c-4.9-6-11.5-9.7-18.1-13.5c-6.3-3.6-12.5-7.7-18.4-11.9c-3.4-2.4-5.2-6-4.7-10.5c0.3-3,0-6,0.1-9
		c0.1-3.8,1.7-6.5,5.4-7.2c3.2-0.6,6.7-0.8,9.9-0.3c4.6,0.7,6.4,3.4,6.5,8.1c0,4.7,0.1,9.3,0,14c0,1.7,0.4,2.4,2.2,2.4
		c7-0.1,14-0.1,21,0c1.6,0,2.2-0.5,2.2-2.1c-0.1-5.2,0.1-10.4-0.1-15.5c-0.3-11.1-5.4-18.3-15.8-21.9c-4.1-1.4-8.6-2.3-12.9-2.7
		c-4.7-0.4-9.5-0.1-14.7-0.1c11.2-25.3,22.4-50.1,33.3-74.9C308.6,127.9,319.3,103.1,330,78.2z"/>
	<path id="XMLID_6_" class="st0" d="M183.6,194.8c5.7,26.5,11.7,52.9,17.5,79.3c0.4,1.9,1.2,2.2,2.8,2.1c6-0.4,12-0.8,18-0.9
		c1.9-0.1,2.7-0.8,3.5-2.4c8.6-19.2,17.3-38.3,26-57.4c9.1-19.9,18.3-39.6,27.5-59.5c0.5-1,0.7-2.1,1.2-3.3
		c-7.9,0-15.3,0.1-22.7-0.1c-2,0-2.9,0.6-3.6,2.5c-9.9,26.2-19.8,52.4-29.7,78.6c-1.6,4.3-3.3,8.7-5,13c-0.2,0-0.3-0.1-0.5-0.1
		c-5.8-31.2-11.6-62.5-17.4-93.8c-8.5,0-16.9,0-25.3,0c0,0.6,0,0.8,0,1.1C178.4,167.5,180.6,181.2,183.6,194.8z"/>
</g>
</svg>
